{
  "accessors": [
    {
      "bufferView": 2,
      "componentType": 5126,
      "count": 18106,
      "max": [
        11.143590927124023,
        13.644659996032715,
        8.420045852661133
      ],
      "min": [
        -14.685138702392578,
        -0.388089656829834,
        -8.420045852661133
      ],
      "type": "VEC3"
    },
    {
      "bufferView": 2,
      "byteOffset": 217272,
      "componentType": 5126,
      "count": 18106,
      "max": [
        1.0,
        1.0,
        1.0
      ],
      "min": [
        -1.0,
        -1.0,
        -1.0
      ],
      "type": "VEC3"
    },
    {
      "bufferView": 3,
      "componentType": 5126,
      "count": 18106,
      "max": [
        1.0,
        1.0,
        1.0,
        1.0
      ],
      "min": [
        -1.0,
        -1.0,
        -0.999993622303009,
        -1.0
      ],
      "type": "VEC4"
    },
    {
      "bufferView": 1,
      "componentType": 5126,
      "count": 18106,
      "max": [
        0.9926643371582031,
        0.9884745478630066
      ],
      "min": [
        0.004976646974682808,
        0.002185039222240448
      ],
      "type": "VEC2"
    },
    {
      "bufferView": 1,
      "byteOffset": 144848,
      "componentType": 5126,
      "count": 18106,
      "max": [
        0.9884026050567627,
        0.7287178635597229
      ],
      "min": [
        0.0,
        0.0
      ],
      "type": "VEC2"
    },
    {
      "bufferView": 0,
      "componentType": 5125,
      "count": 51090,
      "type": "SCALAR"
    },
    {
      "bufferView": 2,
      "byteOffset": 434544,
      "componentType": 5126,
      "count": 4225,
      "max": [
        36.993980407714844,
        3.8462390899658203,
        36.993980407714844
      ],
      "min": [
        -36.993980407714844,
        -2.8222055435180664,
        -36.993980407714844
      ],
      "type": "VEC3"
    },
    {
      "bufferView": 2,
      "byteOffset": 485244,
      "componentType": 5126,
      "count": 4225,
      "max": [
        0.46455758810043335,
        0.9999963045120239,
        0.4086868464946747
      ],
      "min": [
        -0.376909077167511,
        0.8849849104881287,
        -0.46251457929611206
      ],
      "type": "VEC3"
    },
    {
      "bufferView": 3,
      "byteOffset": 289696,
      "componentType": 5126,
      "count": 4225,
      "max": [
        0.029066026210784912,
        0.4621104896068573,
        0.9999997019767761,
        1.0
      ],
      "min": [
        -0.02758496254682541,
        -0.41297030448913574,
        0.886408269405365,
        1.0
      ],
      "type": "VEC4"
    },
    {
      "bufferView": 1,
      "byteOffset": 289696,
      "componentType": 5126,
      "count": 4225,
      "max": [
        0.9952621459960938,
        1.0
      ],
      "min": [
        0.0,
        0.0
      ],
      "type": "VEC2"
    },
    {
      "bufferView": 0,
      "byteOffset": 204360,
      "componentType": 5125,
      "count": 24576,
      "type": "SCALAR"
    }
  ],
  "asset": {
    "extras": {
      "author": "Bunty Somaiya (https://sketchfab.com/BuntySomaiya)",
      "license": "CC-BY-4.0 (http://creativecommons.org/licenses/by/4.0/)",
      "source": "https://sketchfab.com/3d-models/fishing-boat-7ef191da28bc4428b8ede2f62562f1ac",
      "title": "Fishing Boat"
    },
    "generator": "Sketchfab-11.67.0",
    "version": "2.0"
  },
  "bufferViews": [
    {
      "buffer": 0,
      "byteLength": 302664,
      "name": "floatBufferViews",
      "target": 34963
    },
    {
      "buffer": 0,
      "byteLength": 323496,
      "byteOffset": 302664,
      "byteStride": 8,
      "name": "floatBufferViews",
      "target": 34962
    },
    {
      "buffer": 0,
      "byteLength": 535944,
      "byteOffset": 626160,
      "byteStride": 12,
      "name": "floatBufferViews",
      "target": 34962
    },
    {
      "buffer": 0,
      "byteLength": 357296,
      "byteOffset": 1162104,
      "byteStride": 16,
      "name": "floatBufferViews",
      "target": 34962
    }
  ],
  "buffers": [
    {
      "byteLength": 1519400,
      "uri": "scene.bin"
    }
  ],
  "images": [
    {
      "uri": "textures/Material.001_baseColor.png"
    },
    {
      "uri": "textures/Material.001_metallicRoughness.png"
    },
    {
      "uri": "textures/Material.001_normal.png"
    },
    {
      "uri": "textures/Material.002_baseColor.png"
    },
    {
      "uri": "textures/Material.002_metallicRoughness.png"
    },
    {
      "uri": "textures/Material.002_normal.png"
    }
  ],
  "materials": [
    {
      "alphaMode": "BLEND",
      "doubleSided": true,
      "name": "Material.001",
      "normalTexture": {
        "index": 2
      },
      "pbrMetallicRoughness": {
        "baseColorTexture": {
          "index": 0
        },
        "metallicRoughnessTexture": {
          "index": 1
        }
      }
    },
    {
      "alphaMode": "BLEND",
      "doubleSided": true,
      "name": "Material.002",
      "normalTexture": {
        "index": 5
      },
      "pbrMetallicRoughness": {
        "baseColorTexture": {
          "index": 3
        },
        "metallicRoughnessTexture": {
          "index": 4
        }
      }
    }
  ],
  "meshes": [
    {
      "name": "Object_0",
      "primitives": [
        {
          "attributes": {
            "NORMAL": 1,
            "POSITION": 0,
            "TANGENT": 2,
            "TEXCOORD_0": 3,
            "TEXCOORD_1": 4
          },
          "indices": 5,
          "material": 0,
          "mode": 4
        }
      ]
    },
    {
      "name": "Object_1",
      "primitives": [
        {
          "attributes": {
            "NORMAL": 7,
            "POSITION": 6,
            "TANGENT": 8,
            "TEXCOORD_0": 9
          },
          "indices": 10,
          "material": 1,
          "mode": 4
        }
      ]
    }
  ],
  "nodes": [
    {
      "children": [
        1
      ],
      "matrix": [
        1.0,
        0.0,
        0.0,
        0.0,
        0.0,
        2.220446049250313e-16,
        -1.0,
        0.0,
        0.0,
        1.0,
        2.220446049250313e-16,
        0.0,
        0.0,
        0.0,
        0.0,
        1.0
      ],
      "name": "Sketchfab_model"
    },
    {
      "children": [
        2
      ],
      "name": "root"
    },
    {
      "children": [
        3,
        5
      ],
      "matrix": [
        1.0,
        0.0,
        0.0,
        0.0,
        0.0,
        2.220446049250313e-16,
        1.0,
        0.0,
        0.0,
        -1.0,
        2.220446049250313e-16,
        0.0,
        0.0,
        0.0,
        0.0,
        1.0
      ],
      "name": "GLTF_SceneRootNode"
    },
    {
      "children": [
        4
      ],
      "matrix": [
        0.9897834886556084,
        0.14012750135020374,
        -0.02632354364597882,
        0.0,
        -0.13877383746772398,
        0.9891762909299745,
        0.04766641896031289,
        0.0,
        0.03271800145508325,
        -0.04352641528275672,
        0.9985163912292168,
        0.0,
        0.0,
        -0.23704490065574646,
        0.0,
        1.0
      ],
      "name": "Cube.011_0"
    },
    {
      "mesh": 0,
      "name": "Object_4"
    },
    {
      "children": [
        6
      ],
      "name": "Plane.002_1"
    },
    {
      "mesh": 1,
      "name": "Object_6"
    }
  ],
  "samplers": [
    {
      "magFilter": 9729,
      "minFilter": 9987,
      "wrapS": 10497,
      "wrapT": 10497
    }
  ],
  "scene": 0,
  "scenes": [
    {
      "name": "Sketchfab_Scene",
      "nodes": [
        0
      ]
    }
  ],
  "textures": [
    {
      "sampler": 0,
      "source": 0
    },
    {
      "sampler": 0,
      "source": 1
    },
    {
      "sampler": 0,
      "source": 2
    },
    {
      "sampler": 0,
      "source": 3
    },
    {
      "sampler": 0,
      "source": 4
    },
    {
      "sampler": 0,
      "source": 5
    }
  ]
}
