{
  "accessors": [
    {
      "bufferView": 2,
      "componentType": 5126,
      "count": 4659,
      "max": [
        172.3205108642578,
        207.5245819091797,
        1174.630859375
      ],
      "min": [
        -172.3205108642578,
        -121.49879455566406,
        -1146.227294921875
      ],
      "type": "VEC3"
    },
    {
      "bufferView": 2,
      "byteOffset": 55908,
      "componentType": 5126,
      "count": 4659,
      "max": [
        1.0,
        1.0,
        1.0
      ],
      "min": [
        -1.0,
        -1.0,
        -1.0
      ],
      "type": "VEC3"
    },
    {
      "bufferView": 3,
      "componentType": 5126,
      "count": 4659,
      "max": [
        1.0,
        1.0,
        0.9912264347076416,
        1.0
      ],
      "min": [
        -0.8805901408195496,
        -0.9074920415878296,
        -1.0,
        1.0
      ],
      "type": "VEC4"
    },
    {
      "bufferView": 1,
      "componentType": 5126,
      "count": 4659,
      "max": [
        0.9672806262969971,
        0.982833206653595
      ],
      "min": [
        0.0705786645412445,
        0.022484660148620605
      ],
      "type": "VEC2"
    },
    {
      "bufferView": 0,
      "componentType": 5125,
      "count": 13050,
      "type": "SCALAR"
    },
    {
      "bufferView": 2,
      "byteOffset": 111816,
      "componentType": 5126,
      "count": 800,
      "max": [
        168.5087127685547,
        204.33302307128906,
        1135.537353515625
      ],
      "min": [
        -170.19960021972656,
        -38.088558197021484,
        -1112.05810546875
      ],
      "type": "VEC3"
    },
    {
      "bufferView": 2,
      "byteOffset": 121416,
      "componentType": 5126,
      "count": 800,
      "max": [
        1.0,
        1.0,
        1.0
      ],
      "min": [
        -1.0,
        -1.0,
        -1.0
      ],
      "type": "VEC3"
    },
    {
      "bufferView": 1,
      "byteOffset": 37272,
      "componentType": 5126,
      "count": 800,
      "max": [
        0.9911635518074036,
        0.9953771829605103
      ],
      "min": [
        0.0046228207647800446,
        0.004622817039489746
      ],
      "type": "VEC2"
    },
    {
      "bufferView": 0,
      "byteOffset": 52200,
      "componentType": 5125,
      "count": 1380,
      "type": "SCALAR"
    },
    {
      "bufferView": 2,
      "byteOffset": 131016,
      "componentType": 5126,
      "count": 2393,
      "max": [
        156.33653259277344,
        -105.34638977050781,
        1188.6129150390625
      ],
      "min": [
        -158.02740478515625,
        -214.76400756835938,
        -1188.6129150390625
      ],
      "type": "VEC3"
    },
    {
      "bufferView": 2,
      "byteOffset": 159732,
      "componentType": 5126,
      "count": 2393,
      "max": [
        1.0,
        1.0,
        1.0
      ],
      "min": [
        -1.0,
        -1.0,
        -1.0
      ],
      "type": "VEC3"
    },
    {
      "bufferView": 1,
      "byteOffset": 43672,
      "componentType": 5126,
      "count": 2393,
      "max": [
        0.9960869550704956,
        0.9961109161376953
      ],
      "min": [
        0.003913022577762604,
        0.0038890838623046875
      ],
      "type": "VEC2"
    },
    {
      "bufferView": 0,
      "byteOffset": 57720,
      "componentType": 5125,
      "count": 4530,
      "type": "SCALAR"
    },
    {
      "bufferView": 2,
      "byteOffset": 188448,
      "componentType": 5126,
      "count": 1924,
      "max": [
        123.44322204589844,
        214.76400756835938,
        1135.2340087890625
      ],
      "min": [
        -125.13410186767578,
        171.4896697998047,
        -1110.893798828125
      ],
      "type": "VEC3"
    },
    {
      "bufferView": 2,
      "byteOffset": 211536,
      "componentType": 5126,
      "count": 1924,
      "max": [
        1.0,
        1.0,
        1.0
      ],
      "min": [
        -1.0,
        -0.3420242965221405,
        -1.0
      ],
      "type": "VEC3"
    },
    {
      "bufferView": 3,
      "byteOffset": 74544,
      "componentType": 5126,
      "count": 1924,
      "max": [
        1.0,
        0.4519650340080261,
        1.0,
        1.0
      ],
      "min": [
        -1.0,
        -0.4519650340080261,
        -1.0,
        1.0
      ],
      "type": "VEC4"
    },
    {
      "bufferView": 1,
      "byteOffset": 62816,
      "componentType": 5126,
      "count": 1924,
      "max": [
        0.9957284927368164,
        0.9957360625267029
      ],
      "min": [
        0.004271524026989937,
        0.0042639970779418945
      ],
      "type": "VEC2"
    },
    {
      "bufferView": 0,
      "byteOffset": 75840,
      "componentType": 5125,
      "count": 3408,
      "type": "SCALAR"
    },
    {
      "bufferView": 2,
      "byteOffset": 234624,
      "componentType": 5126,
      "count": 5632,
      "max": [
        168.85470581054688,
        137.9394073486328,
        927.8463134765625
      ],
      "min": [
        -170.54559326171875,
        -116.12122344970703,
        -940.1454467773438
      ],
      "type": "VEC3"
    },
    {
      "bufferView": 2,
      "byteOffset": 302208,
      "componentType": 5126,
      "count": 5632,
      "max": [
        1.0,
        1.0,
        1.0
      ],
      "min": [
        -1.0,
        -1.0,
        -1.0
      ],
      "type": "VEC3"
    },
    {
      "bufferView": 1,
      "byteOffset": 78208,
      "componentType": 5126,
      "count": 5632,
      "max": [
        0.9958528876304626,
        0.9958221912384033
      ],
      "min": [
        0.004147102124989033,
        0.00417780876159668
      ],
      "type": "VEC2"
    },
    {
      "bufferView": 0,
      "byteOffset": 89472,
      "componentType": 5125,
      "count": 19680,
      "type": "SCALAR"
    },
    {
      "bufferView": 2,
      "byteOffset": 369792,
      "componentType": 5126,
      "count": 516,
      "max": [
        150.77552795410156,
        108.19290161132813,
        1153.219970703125
      ],
      "min": [
        -152.46640014648438,
        17.954374313354492,
        -1129.3929443359375
      ],
      "type": "VEC3"
    },
    {
      "bufferView": 2,
      "byteOffset": 375984,
      "componentType": 5126,
      "count": 516,
      "max": [
        1.0,
        0.0,
        1.0
      ],
      "min": [
        -1.0,
        0.0,
        -1.0
      ],
      "type": "VEC3"
    },
    {
      "bufferView": 1,
      "byteOffset": 123264,
      "componentType": 5126,
      "count": 516,
      "max": [
        0.995486855506897,
        0.9957306385040283
      ],
      "min": [
        0.004513162188231945,
        0.00426936149597168
      ],
      "type": "VEC2"
    },
    {
      "bufferView": 0,
      "byteOffset": 168192,
      "componentType": 5125,
      "count": 1368,
      "type": "SCALAR"
    }
  ],
  "asset": {
    "extras": {
      "author": "yarankepang (https://sketchfab.com/yarankepang)",
      "license": "CC-BY-4.0 (http://creativecommons.org/licenses/by/4.0/)",
      "source": "https://sketchfab.com/3d-models/new-york-city-subway-car-type-r142-564c1e5ef96f4fd2b94142313c2921ea",
      "title": "New York City Subway car Type-R142"
    },
    "generator": "Sketchfab-12.0.1",
    "version": "2.0"
  },
  "bufferViews": [
    {
      "buffer": 0,
      "byteLength": 173664,
      "name": "floatBufferViews",
      "target": 34963
    },
    {
      "buffer": 0,
      "byteLength": 127392,
      "byteOffset": 173664,
      "byteStride": 8,
      "name": "floatBufferViews",
      "target": 34962
    },
    {
      "buffer": 0,
      "byteLength": 382176,
      "byteOffset": 301056,
      "byteStride": 12,
      "name": "floatBufferViews",
      "target": 34962
    },
    {
      "buffer": 0,
      "byteLength": 105328,
      "byteOffset": 683232,
      "byteStride": 16,
      "name": "floatBufferViews",
      "target": 34962
    }
  ],
  "buffers": [
    {
      "byteLength": 788560,
      "uri": "scene.bin"
    }
  ],
  "images": [
    {
      "uri": "textures/Train_baseColor.jpeg"
    },
    {
      "uri": "textures/Train_metallicRoughness.png"
    },
    {
      "uri": "textures/Train_emissive.jpeg"
    },
    {
      "uri": "textures/Train_normal.png"
    },
    {
      "uri": "textures/Cubes_baseColor.jpeg"
    },
    {
      "uri": "textures/Cubes_metallicRoughness.png"
    },
    {
      "uri": "textures/Wheels_baseColor.jpeg"
    },
    {
      "uri": "textures/Wheels_metallicRoughness.png"
    },
    {
      "uri": "textures/Airconditioning_baseColor.jpeg"
    },
    {
      "uri": "textures/Airconditioning_metallicRoughness.png"
    },
    {
      "uri": "textures/Airconditioning_normal.png"
    },
    {
      "uri": "textures/Side_Doors_baseColor.jpeg"
    },
    {
      "uri": "textures/Side_Doors_metallicRoughness.png"
    },
    {
      "uri": "textures/Glass_baseColor.jpeg"
    },
    {
      "uri": "textures/Glass_metallicRoughness.png"
    }
  ],
  "materials": [
    {
      "doubleSided": true,
      "emissiveFactor": [
        1.0,
        1.0,
        1.0
      ],
      "emissiveTexture": {
        "index": 2
      },
      "name": "Train",
      "normalTexture": {
        "index": 3
      },
      "pbrMetallicRoughness": {
        "baseColorTexture": {
          "index": 0
        },
        "metallicRoughnessTexture": {
          "index": 1
        }
      }
    },
    {
      "doubleSided": true,
      "name": "Cubes",
      "pbrMetallicRoughness": {
        "baseColorTexture": {
          "index": 4
        },
        "metallicRoughnessTexture": {
          "index": 5
        }
      }
    },
    {
      "doubleSided": true,
      "name": "Wheels",
      "pbrMetallicRoughness": {
        "baseColorTexture": {
          "index": 6
        },
        "metallicFactor": 0.0,
        "metallicRoughnessTexture": {
          "index": 7
        }
      }
    },
    {
      "doubleSided": true,
      "name": "Airconditioning",
      "normalTexture": {
        "index": 10
      },
      "pbrMetallicRoughness": {
        "baseColorTexture": {
          "index": 8
        },
        "metallicRoughnessTexture": {
          "index": 9
        }
      }
    },
    {
      "doubleSided": true,
      "name": "Side_Doors",
      "pbrMetallicRoughness": {
        "baseColorTexture": {
          "index": 11
        },
        "metallicRoughnessTexture": {
          "index": 12
        }
      }
    },
    {
      "doubleSided": true,
      "name": "Glass",
      "pbrMetallicRoughness": {
        "baseColorTexture": {
          "index": 13
        },
        "metallicRoughnessTexture": {
          "index": 14
        }
      }
    }
  ],
  "meshes": [
    {
      "name": "Train_Train_0",
      "primitives": [
        {
          "attributes": {
            "NORMAL": 1,
            "POSITION": 0,
            "TANGENT": 2,
            "TEXCOORD_0": 3
          },
          "indices": 4,
          "material": 0,
          "mode": 4
        }
      ]
    },
    {
      "name": "Cubes_Cubes_0",
      "primitives": [
        {
          "attributes": {
            "NORMAL": 6,
            "POSITION": 5,
            "TEXCOORD_0": 7
          },
          "indices": 8,
          "material": 1,
          "mode": 4
        }
      ]
    },
    {
      "name": "Wheels_Wheels_0",
      "primitives": [
        {
          "attributes": {
            "NORMAL": 10,
            "POSITION": 9,
            "TEXCOORD_0": 11
          },
          "indices": 12,
          "material": 2,
          "mode": 4
        }
      ]
    },
    {
      "name": "Aircondinting_Airconditioning_0",
      "primitives": [
        {
          "attributes": {
            "NORMAL": 14,
            "POSITION": 13,
            "TANGENT": 15,
            "TEXCOORD_0": 16
          },
          "indices": 17,
          "material": 3,
          "mode": 4
        }
      ]
    },
    {
      "name": "Side_Doors_Side Doors_0",
      "primitives": [
        {
          "attributes": {
            "NORMAL": 19,
            "POSITION": 18,
            "TEXCOORD_0": 20
          },
          "indices": 21,
          "material": 4,
          "mode": 4
        }
      ]
    },
    {
      "name": "Glass_Glass_0",
      "primitives": [
        {
          "attributes": {
            "NORMAL": 23,
            "POSITION": 22,
            "TEXCOORD_0": 24
          },
          "indices": 25,
          "material": 5,
          "mode": 4
        }
      ]
    }
  ],
  "nodes": [
    {
      "children": [
        1
      ],
      "matrix": [
        0.8208714127540588,
        0.0,
        0.0,
        0.0,
        0.0,
        1.822700685392273e-16,
        -0.8208714127540588,
        0.0,
        0.0,
        0.8208714127540588,
        1.822700685392273e-16,
        0.0,
        0.0,
        0.0,
        0.0,
        1.0
      ],
      "name": "Sketchfab_model"
    },
    {
      "children": [
        2
      ],
      "matrix": [
        0.009999999776482582,
        0.0,
        0.0,
        0.0,
        0.0,
        0.0,
        0.009999999776482582,
        0.0,
        0.0,
        -0.009999999776482582,
        0.0,
        0.0,
        0.0,
        0.0,
        0.0,
        1.0
      ],
      "name": "62143ea176a043cdab86376d669397a2.fbx"
    },
    {
      "children": [
        3
      ],
      "name": "RootNode"
    },
    {
      "children": [
        4,
        5,
        7,
        9,
        11,
        13
      ],
      "matrix": [
        1.0,
        0.0,
        0.0,
        0.0,
        0.0,
        1.0,
        0.0,
        0.0,
        0.0,
        0.0,
        1.0,
        0.0,
        0.8454408645629883,
        239.63055419921875,
        -11.73959732055664,
        1.0
      ],
      "name": "Train"
    },
    {
      "mesh": 0,
      "name": "Train_Train_0"
    },
    {
      "children": [
        6
      ],
      "name": "Cubes"
    },
    {
      "mesh": 1,
      "name": "Cubes_Cubes_0"
    },
    {
      "children": [
        8
      ],
      "name": "Wheels"
    },
    {
      "mesh": 2,
      "name": "Wheels_Wheels_0"
    },
    {
      "children": [
        10
      ],
      "name": "Aircondinting"
    },
    {
      "mesh": 3,
      "name": "Aircondinting_Airconditioning_0"
    },
    {
      "children": [
        12
      ],
      "name": "Side_Doors"
    },
    {
      "mesh": 4,
      "name": "Side_Doors_Side Doors_0"
    },
    {
      "children": [
        14
      ],
      "name": "Glass"
    },
    {
      "mesh": 5,
      "name": "Glass_Glass_0"
    }
  ],
  "samplers": [
    {
      "magFilter": 9729,
      "minFilter": 9987,
      "wrapS": 10497,
      "wrapT": 10497
    }
  ],
  "scene": 0,
  "scenes": [
    {
      "name": "Sketchfab_Scene",
      "nodes": [
        0
      ]
    }
  ],
  "textures": [
    {
      "sampler": 0,
      "source": 0
    },
    {
      "sampler": 0,
      "source": 1
    },
    {
      "sampler": 0,
      "source": 2
    },
    {
      "sampler": 0,
      "source": 3
    },
    {
      "sampler": 0,
      "source": 4
    },
    {
      "sampler": 0,
      "source": 5
    },
    {
      "sampler": 0,
      "source": 6
    },
    {
      "sampler": 0,
      "source": 7
    },
    {
      "sampler": 0,
      "source": 8
    },
    {
      "sampler": 0,
      "source": 9
    },
    {
      "sampler": 0,
      "source": 10
    },
    {
      "sampler": 0,
      "source": 11
    },
    {
      "sampler": 0,
      "source": 12
    },
    {
      "sampler": 0,
      "source": 13
    },
    {
      "sampler": 0,
      "source": 14
    }
  ]
}
