{
  "accessors": [
    {
      "bufferView": 1,
      "componentType": 5126,
      "count": 21906,
      "max": [
        1.6803810596466064,
        0.5860559940338135,
        0.8509902954101563
      ],
      "min": [
        0.5845029354095459,
        0.35823148488998413,
        0.27605903148651123
      ],
      "type": "VEC3"
    },
    {
      "bufferView": 1,
      "byteOffset": 262872,
      "componentType": 5126,
      "count": 21906,
      "max": [
        0.999853253364563,
        0.9999840259552002,
        0.9995436072349548
      ],
      "min": [
        -0.9997515678405762,
        -0.9999940991401672,
        -0.9998878240585327
      ],
      "type": "VEC3"
    },
    {
      "bufferView": 2,
      "componentType": 5126,
      "count": 21906,
      "max": [
        0.2784309983253479,
        0.2705880105495453,
        0.2627449929714203,
        1.0
      ],
      "min": [
        0.2784309983253479,
        0.2705880105495453,
        0.2627449929714203,
        1.0
      ],
      "type": "VEC4"
    },
    {
      "bufferView": 0,
      "componentType": 5125,
      "count": 131340,
      "type": "SCALAR"
    },
    {
      "bufferView": 1,
      "byteOffset": 525744,
      "componentType": 5126,
      "count": 21906,
      "max": [
        1.5644629001617432,
        0.6243345141410828,
        1.0956850051879883
      ],
      "min": [
        0.4578779935836792,
        0.38590750098228455,
        0.5617830157279968
      ],
      "type": "VEC3"
    },
    {
      "bufferView": 1,
      "byteOffset": 788616,
      "componentType": 5126,
      "count": 21906,
      "max": [
        0.9999100565910339,
        0.9999982118606567,
        0.999796986579895
      ],
      "min": [
        -0.9998225569725037,
        -0.9999060034751892,
        -0.9997937083244324
      ],
      "type": "VEC3"
    },
    {
      "bufferView": 2,
      "byteOffset": 350496,
      "componentType": 5126,
      "count": 21906,
      "max": [
        0.2784309983253479,
        0.2705880105495453,
        0.2627449929714203,
        1.0
      ],
      "min": [
        0.2784309983253479,
        0.2705880105495453,
        0.2627449929714203,
        1.0
      ],
      "type": "VEC4"
    },
    {
      "bufferView": 0,
      "byteOffset": 525360,
      "componentType": 5125,
      "count": 131340,
      "type": "SCALAR"
    },
    {
      "bufferView": 1,
      "byteOffset": 1051488,
      "componentType": 5126,
      "count": 65532,
      "max": [
        1.2590231895446777,
        0.5394484996795654,
        1.3161287307739258
      ],
      "min": [
        0.7151949405670166,
        0.08735150098800659,
        0.5764857530593872
      ],
      "type": "VEC3"
    },
    {
      "bufferView": 1,
      "byteOffset": 1837872,
      "componentType": 5126,
      "count": 65532,
      "max": [
        0.9999955892562866,
        0.9999921917915344,
        0.9999881386756897
      ],
      "min": [
        -0.9999397397041321,
        -0.9999239444732666,
        -0.9999783635139465
      ],
      "type": "VEC3"
    },
    {
      "bufferView": 2,
      "byteOffset": 700992,
      "componentType": 5126,
      "count": 65532,
      "max": [
        0.556863009929657,
        0.4313730001449585,
        0.0,
        1.0
      ],
      "min": [
        0.5098040103912354,
        0.37647101283073425,
        0.0,
        1.0
      ],
      "type": "VEC4"
    },
    {
      "bufferView": 0,
      "byteOffset": 1050720,
      "componentType": 5125,
      "count": 327618,
      "type": "SCALAR"
    },
    {
      "bufferView": 1,
      "byteOffset": 2624256,
      "componentType": 5126,
      "count": 65532,
      "max": [
        1.2590231895446777,
        0.525707483291626,
        1.329402208328247
      ],
      "min": [
        0.7094874382019043,
        6.55055046081543e-05,
        0.5659760236740112
      ],
      "type": "VEC3"
    },
    {
      "bufferView": 1,
      "byteOffset": 3410640,
      "componentType": 5126,
      "count": 65532,
      "max": [
        0.9999744296073914,
        0.9999668002128601,
        0.9999966621398926
      ],
      "min": [
        -0.9999715685844421,
        -0.9999663829803467,
        -0.9999573230743408
      ],
      "type": "VEC3"
    },
    {
      "bufferView": 2,
      "byteOffset": 1749504,
      "componentType": 5126,
      "count": 65532,
      "max": [
        0.556863009929657,
        0.4313730001449585,
        0.0,
        1.0
      ],
      "min": [
        0.5098040103912354,
        0.37647101283073425,
        0.0,
        1.0
      ],
      "type": "VEC4"
    },
    {
      "bufferView": 0,
      "byteOffset": 2361192,
      "componentType": 5125,
      "count": 328818,
      "type": "SCALAR"
    },
    {
      "bufferView": 1,
      "byteOffset": 4197024,
      "componentType": 5126,
      "count": 65534,
      "max": [
        1.2587196826934814,
        0.5397515296936035,
        1.329375982284546
      ],
      "min": [
        0.7095999717712402,
        0.0,
        0.5659760236740112
      ],
      "type": "VEC3"
    },
    {
      "bufferView": 1,
      "byteOffset": 4983432,
      "componentType": 5126,
      "count": 65534,
      "max": [
        0.9999955892562866,
        0.9999752640724182,
        0.9999881386756897
      ],
      "min": [
        -0.9999052882194519,
        -0.9999871850013733,
        -0.999970018863678
      ],
      "type": "VEC3"
    },
    {
      "bufferView": 2,
      "byteOffset": 2798016,
      "componentType": 5126,
      "count": 65534,
      "max": [
        0.556863009929657,
        0.4313730001449585,
        0.0,
        1.0
      ],
      "min": [
        0.5098040103912354,
        0.37647101283073425,
        0.0,
        1.0
      ],
      "type": "VEC4"
    },
    {
      "bufferView": 0,
      "byteOffset": 3676464,
      "componentType": 5125,
      "count": 297411,
      "type": "SCALAR"
    },
    {
      "bufferView": 1,
      "byteOffset": 5769840,
      "componentType": 5126,
      "count": 20476,
      "max": [
        1.2396759986877441,
        0.539822518825531,
        1.3287718296051025
      ],
      "min": [
        0.7096179723739624,
        0.0,
        0.5659762620925903
      ],
      "type": "VEC3"
    },
    {
      "bufferView": 1,
      "byteOffset": 6015552,
      "componentType": 5126,
      "count": 20476,
      "max": [
        0.9999603629112244,
        0.9999870657920837,
        0.9994055032730103
      ],
      "min": [
        -0.9998111724853516,
        -0.9998565912246704,
        -0.9995664358139038
      ],
      "type": "VEC3"
    },
    {
      "bufferView": 2,
      "byteOffset": 3846560,
      "componentType": 5126,
      "count": 20476,
      "max": [
        0.556863009929657,
        0.4313730001449585,
        0.0,
        1.0
      ],
      "min": [
        0.5098040103912354,
        0.37647101283073425,
        0.0,
        1.0
      ],
      "type": "VEC4"
    },
    {
      "bufferView": 0,
      "byteOffset": 4866108,
      "componentType": 5125,
      "count": 51261,
      "type": "SCALAR"
    },
    {
      "bufferView": 1,
      "byteOffset": 6261264,
      "componentType": 5126,
      "count": 21906,
      "max": [
        1.4004919528961182,
        0.6472039818763733,
        1.4609849452972412
      ],
      "min": [
        0.3232559561729431,
        0.4021714925765991,
        0.8371410369873047
      ],
      "type": "VEC3"
    },
    {
      "bufferView": 1,
      "byteOffset": 6524136,
      "componentType": 5126,
      "count": 21906,
      "max": [
        0.9999908208847046,
        0.999994158744812,
        0.9994381666183472
      ],
      "min": [
        -0.9994903206825256,
        -0.999987781047821,
        -0.9999791383743286
      ],
      "type": "VEC3"
    },
    {
      "bufferView": 2,
      "byteOffset": 4174176,
      "componentType": 5126,
      "count": 21906,
      "max": [
        0.2784309983253479,
        0.2705880105495453,
        0.2627449929714203,
        1.0
      ],
      "min": [
        0.2784309983253479,
        0.2705880105495453,
        0.2627449929714203,
        1.0
      ],
      "type": "VEC4"
    },
    {
      "bufferView": 0,
      "byteOffset": 5071152,
      "componentType": 5125,
      "count": 131340,
      "type": "SCALAR"
    },
    {
      "bufferView": 1,
      "byteOffset": 6787008,
      "componentType": 5126,
      "count": 21906,
      "max": [
        1.2278239727020264,
        0.648670494556427,
        1.7522107362747192
      ],
      "min": [
        0.1809229850769043,
        0.40089648962020874,
        1.0499119758605957
      ],
      "type": "VEC3"
    },
    {
      "bufferView": 1,
      "byteOffset": 7049880,
      "componentType": 5126,
      "count": 21906,
      "max": [
        0.9998115301132202,
        0.9999895691871643,
        0.9998779296875
      ],
      "min": [
        -0.9997902512550354,
        -0.9999993443489075,
        -0.9999746084213257
      ],
      "type": "VEC3"
    },
    {
      "bufferView": 2,
      "byteOffset": 4524672,
      "componentType": 5126,
      "count": 21906,
      "max": [
        0.2784309983253479,
        0.2705880105495453,
        0.2627449929714203,
        1.0
      ],
      "min": [
        0.2784309983253479,
        0.2705880105495453,
        0.2627449929714203,
        1.0
      ],
      "type": "VEC4"
    },
    {
      "bufferView": 0,
      "byteOffset": 5596512,
      "componentType": 5125,
      "count": 131340,
      "type": "SCALAR"
    },
    {
      "bufferView": 1,
      "byteOffset": 7312752,
      "componentType": 5126,
      "count": 21906,
      "max": [
        1.4898079633712769,
        0.6511420011520386,
        1.2312687635421753
      ],
      "min": [
        0.3925979733467102,
        0.4014104902744293,
        0.6730660200119019
      ],
      "type": "VEC3"
    },
    {
      "bufferView": 1,
      "byteOffset": 7575624,
      "componentType": 5126,
      "count": 21906,
      "max": [
        0.9998140931129456,
        0.999990701675415,
        0.999860405921936
      ],
      "min": [
        -0.9998433589935303,
        -0.9999913573265076,
        -0.999642550945282
      ],
      "type": "VEC3"
    },
    {
      "bufferView": 2,
      "byteOffset": 4875168,
      "componentType": 5126,
      "count": 21906,
      "max": [
        0.2784309983253479,
        0.2705880105495453,
        0.2627449929714203,
        1.0
      ],
      "min": [
        0.2784309983253479,
        0.2705880105495453,
        0.2627449929714203,
        1.0
      ],
      "type": "VEC4"
    },
    {
      "bufferView": 0,
      "byteOffset": 6121872,
      "componentType": 5125,
      "count": 131340,
      "type": "SCALAR"
    },
    {
      "bufferView": 1,
      "byteOffset": 7838496,
      "componentType": 5126,
      "count": 21906,
      "max": [
        0.7122899889945984,
        0.5433384776115417,
        1.2485840320587158
      ],
      "min": [
        0.0,
        0.3068787455558777,
        0.20047599077224731
      ],
      "type": "VEC3"
    },
    {
      "bufferView": 1,
      "byteOffset": 8101368,
      "componentType": 5126,
      "count": 21906,
      "max": [
        0.9998629689216614,
        0.9999808669090271,
        0.9991543889045715
      ],
      "min": [
        -0.9999842643737793,
        -0.9999997615814209,
        -0.9999909400939941
      ],
      "type": "VEC3"
    },
    {
      "bufferView": 2,
      "byteOffset": 5225664,
      "componentType": 5126,
      "count": 21906,
      "max": [
        0.2784309983253479,
        0.2705880105495453,
        0.2627449929714203,
        1.0
      ],
      "min": [
        0.2784309983253479,
        0.2705880105495453,
        0.2627449929714203,
        1.0
      ],
      "type": "VEC4"
    },
    {
      "bufferView": 0,
      "byteOffset": 6647232,
      "componentType": 5125,
      "count": 131340,
      "type": "SCALAR"
    },
    {
      "bufferView": 1,
      "byteOffset": 8364240,
      "componentType": 5126,
      "count": 21906,
      "max": [
        1.737997055053711,
        0.5774314999580383,
        0.6064180135726929
      ],
      "min": [
        0.6522009372711182,
        0.3218174874782562,
        0.0
      ],
      "type": "VEC3"
    },
    {
      "bufferView": 1,
      "byteOffset": 8627112,
      "componentType": 5126,
      "count": 21906,
      "max": [
        0.9999996423721313,
        0.9999952912330627,
        0.9992246031761169
      ],
      "min": [
        -0.999854564666748,
        -0.9999991655349731,
        -0.9999299645423889
      ],
      "type": "VEC3"
    },
    {
      "bufferView": 2,
      "byteOffset": 5576160,
      "componentType": 5126,
      "count": 21906,
      "max": [
        0.2784309983253479,
        0.2705880105495453,
        0.2627449929714203,
        1.0
      ],
      "min": [
        0.2784309983253479,
        0.2705880105495453,
        0.2627449929714203,
        1.0
      ],
      "type": "VEC4"
    },
    {
      "bufferView": 0,
      "byteOffset": 7172592,
      "componentType": 5125,
      "count": 131340,
      "type": "SCALAR"
    },
    {
      "bufferView": 1,
      "byteOffset": 8889984,
      "componentType": 5126,
      "count": 21906,
      "max": [
        1.1280269622802734,
        0.6911537647247314,
        1.9999200105667114
      ],
      "min": [
        0.06681495904922485,
        0.43366649746894836,
        1.3313920497894287
      ],
      "type": "VEC3"
    },
    {
      "bufferView": 1,
      "byteOffset": 9152856,
      "componentType": 5126,
      "count": 21906,
      "max": [
        0.999502420425415,
        0.9999890327453613,
        0.9999949336051941
      ],
      "min": [
        -0.9999151825904846,
        -0.9999870657920837,
        -0.9999719262123108
      ],
      "type": "VEC3"
    },
    {
      "bufferView": 2,
      "byteOffset": 5926656,
      "componentType": 5126,
      "count": 21906,
      "max": [
        0.2784309983253479,
        0.2705880105495453,
        0.2627449929714203,
        1.0
      ],
      "min": [
        0.2784309983253479,
        0.2705880105495453,
        0.2627449929714203,
        1.0
      ],
      "type": "VEC4"
    },
    {
      "bufferView": 0,
      "byteOffset": 7697952,
      "componentType": 5125,
      "count": 131340,
      "type": "SCALAR"
    },
    {
      "bufferView": 1,
      "byteOffset": 9415728,
      "componentType": 5126,
      "count": 21906,
      "max": [
        1.702839970588684,
        0.6941205263137817,
        1.9797300100326538
      ],
      "min": [
        1.028752088546753,
        0.4866989850997925,
        0.9167519807815552
      ],
      "type": "VEC3"
    },
    {
      "bufferView": 1,
      "byteOffset": 9678600,
      "componentType": 5126,
      "count": 21906,
      "max": [
        0.9997290968894958,
        0.9999971985816956,
        0.999527096748352
      ],
      "min": [
        -0.999955952167511,
        -0.9999973773956299,
        -0.9988129734992981
      ],
      "type": "VEC3"
    },
    {
      "bufferView": 2,
      "byteOffset": 6277152,
      "componentType": 5126,
      "count": 21906,
      "max": [
        0.2784309983253479,
        0.2705880105495453,
        0.2627449929714203,
        1.0
      ],
      "min": [
        0.2784309983253479,
        0.2705880105495453,
        0.2627449929714203,
        1.0
      ],
      "type": "VEC4"
    },
    {
      "bufferView": 0,
      "byteOffset": 8223312,
      "componentType": 5125,
      "count": 131340,
      "type": "SCALAR"
    },
    {
      "bufferView": 1,
      "byteOffset": 9941472,
      "componentType": 5126,
      "count": 21906,
      "max": [
        1.975748062133789,
        0.6396424770355225,
        1.3475079536437988
      ],
      "min": [
        1.3439114093780518,
        0.3852275013923645,
        0.27205103635787964
      ],
      "type": "VEC3"
    },
    {
      "bufferView": 1,
      "byteOffset": 10204344,
      "componentType": 5126,
      "count": 21906,
      "max": [
        0.9999780058860779,
        0.9999902844429016,
        0.9999364614486694
      ],
      "min": [
        -0.9997031092643738,
        -0.9999979734420776,
        -0.9996088743209839
      ],
      "type": "VEC3"
    },
    {
      "bufferView": 2,
      "byteOffset": 6627648,
      "componentType": 5126,
      "count": 21906,
      "max": [
        0.2784309983253479,
        0.2705880105495453,
        0.2627449929714203,
        1.0
      ],
      "min": [
        0.2784309983253479,
        0.2705880105495453,
        0.2627449929714203,
        1.0
      ],
      "type": "VEC4"
    },
    {
      "bufferView": 0,
      "byteOffset": 8748672,
      "componentType": 5125,
      "count": 131340,
      "type": "SCALAR"
    }
  ],
  "asset": {
    "extras": {
      "author": "alban (https://sketchfab.com/alban)",
      "license": "CC-BY-4.0 (http://creativecommons.org/licenses/by/4.0/)",
      "source": "https://sketchfab.com/3d-models/charging-bull-979cc21596534c8c8347a3a89a5c1e54",
      "title": "Charging bull"
    },
    "generator": "Sketchfab-12.48.0",
    "version": "2.0"
  },
  "bufferViews": [
    {
      "buffer": 0,
      "byteLength": 9274032,
      "name": "floatBufferViews",
      "target": 34963
    },
    {
      "buffer": 0,
      "byteLength": 10467216,
      "byteOffset": 9274032,
      "byteStride": 12,
      "name": "floatBufferViews",
      "target": 34962
    },
    {
      "buffer": 0,
      "byteLength": 6978144,
      "byteOffset": 19741248,
      "byteStride": 16,
      "name": "floatBufferViews",
      "target": 34962
    }
  ],
  "buffers": [
    {
      "byteLength": 26719392,
      "uri": "scene.bin"
    }
  ],
  "materials": [
    {
      "doubleSided": true,
      "name": "material_0",
      "pbrMetallicRoughness": {
        "baseColorFactor": [
          0.6778455129483851,
          0.6778455129483851,
          0.6778455129483851,
          1.0
        ],
        "roughnessFactor": 0.48882112270448264
      }
    }
  ],
  "meshes": [
    {
      "name": "Object_0",
      "primitives": [
        {
          "attributes": {
            "COLOR_0": 2,
            "NORMAL": 1,
            "POSITION": 0
          },
          "indices": 3,
          "material": 0,
          "mode": 4
        }
      ]
    },
    {
      "name": "Object_1",
      "primitives": [
        {
          "attributes": {
            "COLOR_0": 6,
            "NORMAL": 5,
            "POSITION": 4
          },
          "indices": 7,
          "material": 0,
          "mode": 4
        }
      ]
    },
    {
      "name": "Object_2",
      "primitives": [
        {
          "attributes": {
            "COLOR_0": 10,
            "NORMAL": 9,
            "POSITION": 8
          },
          "indices": 11,
          "material": 0,
          "mode": 4
        }
      ]
    },
    {
      "name": "Object_3",
      "primitives": [
        {
          "attributes": {
            "COLOR_0": 14,
            "NORMAL": 13,
            "POSITION": 12
          },
          "indices": 15,
          "material": 0,
          "mode": 4
        }
      ]
    },
    {
      "name": "Object_4",
      "primitives": [
        {
          "attributes": {
            "COLOR_0": 18,
            "NORMAL": 17,
            "POSITION": 16
          },
          "indices": 19,
          "material": 0,
          "mode": 4
        }
      ]
    },
    {
      "name": "Object_5",
      "primitives": [
        {
          "attributes": {
            "COLOR_0": 22,
            "NORMAL": 21,
            "POSITION": 20
          },
          "indices": 23,
          "material": 0,
          "mode": 4
        }
      ]
    },
    {
      "name": "Object_6",
      "primitives": [
        {
          "attributes": {
            "COLOR_0": 26,
            "NORMAL": 25,
            "POSITION": 24
          },
          "indices": 27,
          "material": 0,
          "mode": 4
        }
      ]
    },
    {
      "name": "Object_7",
      "primitives": [
        {
          "attributes": {
            "COLOR_0": 30,
            "NORMAL": 29,
            "POSITION": 28
          },
          "indices": 31,
          "material": 0,
          "mode": 4
        }
      ]
    },
    {
      "name": "Object_8",
      "primitives": [
        {
          "attributes": {
            "COLOR_0": 34,
            "NORMAL": 33,
            "POSITION": 32
          },
          "indices": 35,
          "material": 0,
          "mode": 4
        }
      ]
    },
    {
      "name": "Object_9",
      "primitives": [
        {
          "attributes": {
            "COLOR_0": 38,
            "NORMAL": 37,
            "POSITION": 36
          },
          "indices": 39,
          "material": 0,
          "mode": 4
        }
      ]
    },
    {
      "name": "Object_10",
      "primitives": [
        {
          "attributes": {
            "COLOR_0": 42,
            "NORMAL": 41,
            "POSITION": 40
          },
          "indices": 43,
          "material": 0,
          "mode": 4
        }
      ]
    },
    {
      "name": "Object_11",
      "primitives": [
        {
          "attributes": {
            "COLOR_0": 46,
            "NORMAL": 45,
            "POSITION": 44
          },
          "indices": 47,
          "material": 0,
          "mode": 4
        }
      ]
    },
    {
      "name": "Object_12",
      "primitives": [
        {
          "attributes": {
            "COLOR_0": 50,
            "NORMAL": 49,
            "POSITION": 48
          },
          "indices": 51,
          "material": 0,
          "mode": 4
        }
      ]
    },
    {
      "name": "Object_13",
      "primitives": [
        {
          "attributes": {
            "COLOR_0": 54,
            "NORMAL": 53,
            "POSITION": 52
          },
          "indices": 55,
          "material": 0,
          "mode": 4
        }
      ]
    }
  ],
  "nodes": [
    {
      "children": [
        1
      ],
      "matrix": [
        4.995866417884827,
        0.20041737705469131,
        -0.03393845632672306,
        0.0,
        0.19747143611311913,
        -4.983196258544922,
        -0.3588320314884197,
        0.0,
        -0.04820763133466244,
        0.35719502717256657,
        -4.986991882324219,
        0.0,
        -0.005388072691857815,
        0.1206581071019173,
        -0.13670594990253446,
        1.0
      ],
      "name": "Sketchfab_model"
    },
    {
      "children": [
        2,
        3,
        4,
        5,
        6,
        7,
        8,
        9,
        10,
        11,
        12,
        13,
        14,
        15
      ],
      "matrix": [
        1.0,
        0.0,
        0.0,
        0.0,
        0.0,
        1.0,
        0.0,
        0.0,
        0.0,
        0.0,
        1.0,
        0.0,
        -0.9881569743156433,
        -0.34514349699020386,
        -0.9999200105667114,
        1.0
      ],
      "name": "bull-final-reduced-50.obj.cleaner.gles"
    },
    {
      "mesh": 0,
      "name": "Object_2"
    },
    {
      "mesh": 1,
      "name": "Object_3"
    },
    {
      "mesh": 2,
      "name": "Object_4"
    },
    {
      "mesh": 3,
      "name": "Object_5"
    },
    {
      "mesh": 4,
      "name": "Object_6"
    },
    {
      "mesh": 5,
      "name": "Object_7"
    },
    {
      "mesh": 6,
      "name": "Object_8"
    },
    {
      "mesh": 7,
      "name": "Object_9"
    },
    {
      "mesh": 8,
      "name": "Object_10"
    },
    {
      "mesh": 9,
      "name": "Object_11"
    },
    {
      "mesh": 10,
      "name": "Object_12"
    },
    {
      "mesh": 11,
      "name": "Object_13"
    },
    {
      "mesh": 12,
      "name": "Object_14"
    },
    {
      "mesh": 13,
      "name": "Object_15"
    }
  ],
  "scene": 0,
  "scenes": [
    {
      "name": "Sketchfab_Scene",
      "nodes": [
        0
      ]
    }
  ]
}
